# xmcd CD database file
#
# Track frame offsets:
#	150
#	21966
#	43764
#	59446
#	76707
#	91447
#	113790
#	139391
#	160116
#
# Disc length: 2372 seconds
#
# Revision: 0
# Processed by: cddbd v1.5.1PL0 Copyright (c) Steve Scherf et al.
# Submitted via: CDex 1.51
#
DISCID=71094209
DTITLE=Paul Brandenberg - Downstream
DYEAR=1989
DGENRE=New Age
TTITLE0=Downstream
TTITLE1=Seasons
TTITLE2=Moments
TTITLE3=Words
TTITLE4=Memory
TTITLE5=It's Nice
TTITLE6=Time
TTITLE7=Way
TTITLE8=For You
EXTD=YEAR: 1989
EXTT0=
EXTT1=
EXTT2=
EXTT3=
EXTT4=
EXTT5=
EXTT6=
EXTT7=
EXTT8=
PLAYORDER=
